<svg xmlns="http://www.w3.org/2000/svg" viewBox="0 0 764.51 764.51">
  <rect width="764.51" height="764.51" rx="38.27" ry="38.27" fill="#3717b6"/>
  <path fill="#fff" d="M253.2,552.35c-36.64-3.12-70.45-17.56-97.63-41.57l-13.99-14c-23.71-27.08-37.99-60.54-40.66-96.64l-.03-25.93c5.79-80.54,68.9-143.99,148.92-152.11l9.84-.6c4.33-.26,8.22-.25,12.56,0l9.83.58c29.4,2.96,57.27,13.23,81.08,30.8l57.73,42.61-35.31-55.14c26.45-18.04,56.52-28.43,88.43-30.59h24.78c89.2,6.15,159.9,77.96,164.86,167.15v20.8c-.92,12.94-2.76,25.1-6.38,37.79-7.38,25.94-20.38,49.6-38.11,69.94l-17.41,17.33c-11.35,11.3-25.11,18.53-39.56,25.45-19.7,9.44-40.47,14.55-62.24,16.51l-25.98-.12c-40.02-2.72-77.75-19.08-107.32-45.96-25.46,19.49-55.75,31.2-87.67,33.6l-25.74.08ZM486.62,344.75l62.91-46.96c-21.5-15.19-47.05-22.21-73.06-20.04-19.26,2.09-37.29,8.47-53.25,19.78l63.4,47.22ZM308.56,396.77l-.16-43.58,73.6.02c-7.73,22.65-7.48,46.63.33,69.07l47.34-35.21-110.55-82.23c-18.71-11.68-40.5-18.03-62.28-15.48-47.49,5.57-85.01,41.72-88.44,90.12-2.25,25.75,6.6,52.97,23.84,72.02,8.91,9.84,18.55,17.4,30.38,23.13,35.93,17.4,72.39,13.11,103.44-10.44-10.45-21.33-15.76-43.62-17.49-67.4ZM590.35,421.79c7.81-23.7,7.38-47.08-.14-69.5l-46.68,34.76,46.82,34.74ZM531.76,486.98c6.47-3.28,12.49-6.3,18.03-10.55l-63.25-47.01-63.58,47.34c32.37,22.83,73.54,26.57,108.8,10.23Z"/>
</svg>
